<mxfile host="app.diagrams.net" modified="2023-11-19T02:28:55.830Z" agent="Mozilla/5.0 (Windows NT 10.0; Win64; x64) AppleWebKit/537.36 (KHTML, like Gecko) Chrome/119.0.0.0 Safari/537.36 Edg/119.0.0.0" etag="FtIqdy8zsOMZbbme8v2X" version="22.1.3" type="github" pages="3">
  <diagram name="Page-1" id="19d8dcba-68ad-dc05-1034-9cf7b2a963f6">
    <mxGraphModel dx="1455" dy="1035" grid="1" gridSize="10" guides="1" tooltips="1" connect="1" arrows="1" fold="1" page="1" pageScale="1" pageWidth="1100" pageHeight="850" background="none" math="0" shadow="0">
      <root>
        <mxCell id="0" />
        <mxCell id="1" parent="0" />
        <mxCell id="iYVj51GX8EMyQ7NHTQ08-89" style="edgeStyle=orthogonalEdgeStyle;rounded=0;orthogonalLoop=1;jettySize=auto;html=1;exitX=0.5;exitY=1;exitDx=0;exitDy=0;entryX=0.5;entryY=0;entryDx=0;entryDy=0;endArrow=none;endFill=0;" edge="1" parent="1" source="iYVj51GX8EMyQ7NHTQ08-3" target="iYVj51GX8EMyQ7NHTQ08-86">
          <mxGeometry relative="1" as="geometry" />
        </mxCell>
        <mxCell id="iYVj51GX8EMyQ7NHTQ08-90" style="edgeStyle=orthogonalEdgeStyle;rounded=0;orthogonalLoop=1;jettySize=auto;html=1;exitX=0.5;exitY=1;exitDx=0;exitDy=0;entryX=0.5;entryY=0;entryDx=0;entryDy=0;endArrow=none;endFill=0;" edge="1" parent="1" source="iYVj51GX8EMyQ7NHTQ08-3" target="iYVj51GX8EMyQ7NHTQ08-6">
          <mxGeometry relative="1" as="geometry" />
        </mxCell>
        <mxCell id="iYVj51GX8EMyQ7NHTQ08-91" style="edgeStyle=orthogonalEdgeStyle;rounded=0;orthogonalLoop=1;jettySize=auto;html=1;exitX=0.5;exitY=1;exitDx=0;exitDy=0;entryX=0.5;entryY=0;entryDx=0;entryDy=0;endArrow=none;endFill=0;" edge="1" parent="1" source="iYVj51GX8EMyQ7NHTQ08-3" target="iYVj51GX8EMyQ7NHTQ08-87">
          <mxGeometry relative="1" as="geometry" />
        </mxCell>
        <mxCell id="iYVj51GX8EMyQ7NHTQ08-92" style="edgeStyle=orthogonalEdgeStyle;rounded=0;orthogonalLoop=1;jettySize=auto;html=1;exitX=0.5;exitY=1;exitDx=0;exitDy=0;entryX=0.5;entryY=0;entryDx=0;entryDy=0;endArrow=none;endFill=0;" edge="1" parent="1" source="iYVj51GX8EMyQ7NHTQ08-3" target="iYVj51GX8EMyQ7NHTQ08-88">
          <mxGeometry relative="1" as="geometry" />
        </mxCell>
        <mxCell id="iYVj51GX8EMyQ7NHTQ08-3" value="&lt;font style=&quot;font-size: 24px;&quot;&gt;图书管理系统&lt;/font&gt;" style="whiteSpace=wrap;html=1;rounded=1;shadow=1;strokeWidth=1;fontSize=16;align=center;fillColor=#f5f5f5;strokeColor=#666666;" vertex="1" parent="1">
          <mxGeometry x="532" y="190" width="510" height="40" as="geometry" />
        </mxCell>
        <mxCell id="iYVj51GX8EMyQ7NHTQ08-6" value="&lt;span style=&quot;font-size: 24px;&quot;&gt;图书管理&lt;/span&gt;" style="whiteSpace=wrap;html=1;rounded=1;shadow=1;strokeWidth=1;fontSize=16;align=center;fillColor=#f5f5f5;strokeColor=#666666;" vertex="1" parent="1">
          <mxGeometry x="653" y="400" width="40" height="250" as="geometry" />
        </mxCell>
        <mxCell id="iYVj51GX8EMyQ7NHTQ08-86" value="&lt;span style=&quot;font-size: 24px;&quot;&gt;图书查询&lt;/span&gt;" style="whiteSpace=wrap;html=1;rounded=1;shadow=1;strokeWidth=1;fontSize=16;align=center;fillColor=#f5f5f5;strokeColor=#666666;" vertex="1" parent="1">
          <mxGeometry x="378" y="400" width="40" height="250" as="geometry" />
        </mxCell>
        <mxCell id="iYVj51GX8EMyQ7NHTQ08-87" value="&lt;span style=&quot;font-size: 24px;&quot;&gt;图书借还&lt;/span&gt;" style="whiteSpace=wrap;html=1;rounded=1;shadow=1;strokeWidth=1;fontSize=16;align=center;fillColor=#f5f5f5;strokeColor=#666666;" vertex="1" parent="1">
          <mxGeometry x="916" y="400" width="40" height="250" as="geometry" />
        </mxCell>
        <mxCell id="iYVj51GX8EMyQ7NHTQ08-88" value="&lt;font style=&quot;font-size: 24px;&quot;&gt;系统管理&lt;/font&gt;" style="whiteSpace=wrap;html=1;rounded=1;shadow=1;strokeWidth=1;fontSize=16;align=center;fillColor=#f5f5f5;strokeColor=#666666;" vertex="1" parent="1">
          <mxGeometry x="1156" y="400" width="40" height="250" as="geometry" />
        </mxCell>
      </root>
    </mxGraphModel>
  </diagram>
  <diagram id="fdFhu41M_7hisXZa4L5B" name="第 2 页">
    <mxGraphModel dx="1261" dy="897" grid="1" gridSize="10" guides="1" tooltips="1" connect="1" arrows="1" fold="1" page="1" pageScale="1" pageWidth="827" pageHeight="1169" math="0" shadow="0">
      <root>
        <mxCell id="0" />
        <mxCell id="1" parent="0" />
        <mxCell id="Mm-zwQ3smN4NNKGaoo8I-1" style="edgeStyle=orthogonalEdgeStyle;rounded=0;orthogonalLoop=1;jettySize=auto;html=1;exitX=0.5;exitY=1;exitDx=0;exitDy=0;entryX=0.5;entryY=0;entryDx=0;entryDy=0;endArrow=none;endFill=0;" edge="1" parent="1" source="Mm-zwQ3smN4NNKGaoo8I-5" target="Mm-zwQ3smN4NNKGaoo8I-7">
          <mxGeometry relative="1" as="geometry" />
        </mxCell>
        <mxCell id="Mm-zwQ3smN4NNKGaoo8I-2" style="edgeStyle=orthogonalEdgeStyle;rounded=0;orthogonalLoop=1;jettySize=auto;html=1;exitX=0.5;exitY=1;exitDx=0;exitDy=0;entryX=0.5;entryY=0;entryDx=0;entryDy=0;endArrow=none;endFill=0;" edge="1" parent="1" source="Mm-zwQ3smN4NNKGaoo8I-5" target="Mm-zwQ3smN4NNKGaoo8I-6">
          <mxGeometry relative="1" as="geometry" />
        </mxCell>
        <mxCell id="Mm-zwQ3smN4NNKGaoo8I-3" style="edgeStyle=orthogonalEdgeStyle;rounded=0;orthogonalLoop=1;jettySize=auto;html=1;exitX=0.5;exitY=1;exitDx=0;exitDy=0;entryX=0.5;entryY=0;entryDx=0;entryDy=0;endArrow=none;endFill=0;" edge="1" parent="1" source="Mm-zwQ3smN4NNKGaoo8I-5" target="Mm-zwQ3smN4NNKGaoo8I-8">
          <mxGeometry relative="1" as="geometry" />
        </mxCell>
        <mxCell id="vpic5cqD_UgLgBhDc17--16" style="edgeStyle=orthogonalEdgeStyle;rounded=0;orthogonalLoop=1;jettySize=auto;html=1;exitX=0.5;exitY=1;exitDx=0;exitDy=0;endArrow=none;endFill=0;" edge="1" parent="1" source="Mm-zwQ3smN4NNKGaoo8I-5" target="vpic5cqD_UgLgBhDc17--9">
          <mxGeometry relative="1" as="geometry" />
        </mxCell>
        <mxCell id="Mm-zwQ3smN4NNKGaoo8I-5" value="&lt;span style=&quot;font-size: 24px;&quot;&gt;图书查询&lt;/span&gt;" style="whiteSpace=wrap;html=1;rounded=1;shadow=1;strokeWidth=1;fontSize=16;align=center;fillColor=#f5f5f5;strokeColor=#666666;" vertex="1" parent="1">
          <mxGeometry x="532" y="190" width="510" height="40" as="geometry" />
        </mxCell>
        <mxCell id="Mm-zwQ3smN4NNKGaoo8I-6" value="&lt;span style=&quot;font-size: 24px;&quot;&gt;按作者查询&lt;/span&gt;" style="whiteSpace=wrap;html=1;rounded=1;shadow=1;strokeWidth=1;fontSize=16;align=center;fillColor=#f5f5f5;strokeColor=#666666;" vertex="1" parent="1">
          <mxGeometry x="643.5" y="310" width="40" height="250" as="geometry" />
        </mxCell>
        <mxCell id="Mm-zwQ3smN4NNKGaoo8I-7" value="&lt;span style=&quot;font-size: 24px;&quot;&gt;按名查询&lt;/span&gt;" style="whiteSpace=wrap;html=1;rounded=1;shadow=1;strokeWidth=1;fontSize=16;align=center;fillColor=#f5f5f5;strokeColor=#666666;" vertex="1" parent="1">
          <mxGeometry x="374.5" y="310" width="40" height="250" as="geometry" />
        </mxCell>
        <mxCell id="Mm-zwQ3smN4NNKGaoo8I-8" value="&lt;span style=&quot;font-size: 24px;&quot;&gt;按时间查询&lt;/span&gt;" style="whiteSpace=wrap;html=1;rounded=1;shadow=1;strokeWidth=1;fontSize=16;align=center;fillColor=#f5f5f5;strokeColor=#666666;" vertex="1" parent="1">
          <mxGeometry x="912.5" y="310" width="40" height="250" as="geometry" />
        </mxCell>
        <mxCell id="Mm-zwQ3smN4NNKGaoo8I-10" style="edgeStyle=orthogonalEdgeStyle;rounded=0;orthogonalLoop=1;jettySize=auto;html=1;exitX=0.5;exitY=1;exitDx=0;exitDy=0;entryX=0.5;entryY=0;entryDx=0;entryDy=0;endArrow=none;endFill=0;" edge="1" parent="1" target="Mm-zwQ3smN4NNKGaoo8I-15">
          <mxGeometry relative="1" as="geometry">
            <mxPoint x="394.5" y="609.9999999999998" as="sourcePoint" />
          </mxGeometry>
        </mxCell>
        <mxCell id="Mm-zwQ3smN4NNKGaoo8I-11" style="edgeStyle=orthogonalEdgeStyle;rounded=0;orthogonalLoop=1;jettySize=auto;html=1;entryX=0.5;entryY=0;entryDx=0;entryDy=0;endArrow=none;endFill=0;exitX=0.5;exitY=1;exitDx=0;exitDy=0;" edge="1" parent="1" source="Mm-zwQ3smN4NNKGaoo8I-7" target="Mm-zwQ3smN4NNKGaoo8I-14">
          <mxGeometry relative="1" as="geometry">
            <mxPoint x="394.5" y="700" as="sourcePoint" />
          </mxGeometry>
        </mxCell>
        <mxCell id="Mm-zwQ3smN4NNKGaoo8I-12" style="edgeStyle=orthogonalEdgeStyle;rounded=0;orthogonalLoop=1;jettySize=auto;html=1;exitX=0.5;exitY=1;exitDx=0;exitDy=0;entryX=0.5;entryY=0;entryDx=0;entryDy=0;endArrow=none;endFill=0;" edge="1" parent="1" target="Mm-zwQ3smN4NNKGaoo8I-16">
          <mxGeometry relative="1" as="geometry">
            <mxPoint x="394.5" y="609.9999999999998" as="sourcePoint" />
          </mxGeometry>
        </mxCell>
        <mxCell id="Mm-zwQ3smN4NNKGaoo8I-14" value="&lt;span style=&quot;font-size: 24px;&quot;&gt;模糊搜索&lt;/span&gt;" style="whiteSpace=wrap;html=1;rounded=1;shadow=1;strokeWidth=1;fontSize=16;align=center;fillColor=#f5f5f5;strokeColor=#666666;" vertex="1" parent="1">
          <mxGeometry x="375.5" y="650" width="40" height="250" as="geometry" />
        </mxCell>
        <mxCell id="Mm-zwQ3smN4NNKGaoo8I-15" value="&lt;span style=&quot;font-size: 24px;&quot;&gt;图书名称&lt;/span&gt;" style="whiteSpace=wrap;html=1;rounded=1;shadow=1;strokeWidth=1;fontSize=16;align=center;fillColor=#f5f5f5;strokeColor=#666666;" vertex="1" parent="1">
          <mxGeometry x="291.5" y="650" width="40" height="250" as="geometry" />
        </mxCell>
        <mxCell id="Mm-zwQ3smN4NNKGaoo8I-16" value="&lt;span style=&quot;font-size: 24px;&quot;&gt;相似搜索&lt;/span&gt;" style="whiteSpace=wrap;html=1;rounded=1;shadow=1;strokeWidth=1;fontSize=16;align=center;fillColor=#f5f5f5;strokeColor=#666666;" vertex="1" parent="1">
          <mxGeometry x="457.5" y="650" width="40" height="250" as="geometry" />
        </mxCell>
        <mxCell id="Mm-zwQ3smN4NNKGaoo8I-22" style="edgeStyle=orthogonalEdgeStyle;rounded=0;orthogonalLoop=1;jettySize=auto;html=1;exitX=0.5;exitY=1;exitDx=0;exitDy=0;entryX=0.5;entryY=0;entryDx=0;entryDy=0;endArrow=none;endFill=0;" edge="1" parent="1" target="Mm-zwQ3smN4NNKGaoo8I-25">
          <mxGeometry relative="1" as="geometry">
            <mxPoint x="663.5" y="609.9999999999998" as="sourcePoint" />
          </mxGeometry>
        </mxCell>
        <mxCell id="Mm-zwQ3smN4NNKGaoo8I-23" style="edgeStyle=orthogonalEdgeStyle;rounded=0;orthogonalLoop=1;jettySize=auto;html=1;exitX=0.5;exitY=1;exitDx=0;exitDy=0;entryX=0.5;entryY=0;entryDx=0;entryDy=0;endArrow=none;endFill=0;" edge="1" parent="1" target="Mm-zwQ3smN4NNKGaoo8I-26">
          <mxGeometry relative="1" as="geometry">
            <mxPoint x="663.5" y="609.9999999999998" as="sourcePoint" />
          </mxGeometry>
        </mxCell>
        <mxCell id="Mm-zwQ3smN4NNKGaoo8I-27" style="edgeStyle=orthogonalEdgeStyle;rounded=0;orthogonalLoop=1;jettySize=auto;html=1;exitX=0.5;exitY=0;exitDx=0;exitDy=0;entryX=0.5;entryY=1;entryDx=0;entryDy=0;endArrow=none;endFill=0;" edge="1" parent="1" source="Mm-zwQ3smN4NNKGaoo8I-24" target="Mm-zwQ3smN4NNKGaoo8I-6">
          <mxGeometry relative="1" as="geometry" />
        </mxCell>
        <mxCell id="Mm-zwQ3smN4NNKGaoo8I-24" value="&lt;font style=&quot;font-size: 24px;&quot;&gt;模糊搜索&lt;/font&gt;" style="whiteSpace=wrap;html=1;rounded=1;shadow=1;strokeWidth=1;fontSize=16;align=center;fillColor=#f5f5f5;strokeColor=#666666;" vertex="1" parent="1">
          <mxGeometry x="644.5" y="650" width="40" height="250" as="geometry" />
        </mxCell>
        <mxCell id="Mm-zwQ3smN4NNKGaoo8I-25" value="&lt;span style=&quot;font-size: 24px;&quot;&gt;作者名称&lt;/span&gt;" style="whiteSpace=wrap;html=1;rounded=1;shadow=1;strokeWidth=1;fontSize=16;align=center;fillColor=#f5f5f5;strokeColor=#666666;" vertex="1" parent="1">
          <mxGeometry x="560.5" y="650" width="40" height="250" as="geometry" />
        </mxCell>
        <mxCell id="Mm-zwQ3smN4NNKGaoo8I-26" value="&lt;font style=&quot;font-size: 24px;&quot;&gt;相似搜索&lt;/font&gt;" style="whiteSpace=wrap;html=1;rounded=1;shadow=1;strokeWidth=1;fontSize=16;align=center;fillColor=#f5f5f5;strokeColor=#666666;" vertex="1" parent="1">
          <mxGeometry x="726.5" y="650" width="40" height="250" as="geometry" />
        </mxCell>
        <mxCell id="Mm-zwQ3smN4NNKGaoo8I-28" style="edgeStyle=orthogonalEdgeStyle;rounded=0;orthogonalLoop=1;jettySize=auto;html=1;exitX=0.5;exitY=1;exitDx=0;exitDy=0;entryX=0.5;entryY=0;entryDx=0;entryDy=0;endArrow=none;endFill=0;" edge="1" parent="1" target="Mm-zwQ3smN4NNKGaoo8I-31" source="Mm-zwQ3smN4NNKGaoo8I-8">
          <mxGeometry relative="1" as="geometry">
            <mxPoint x="932.5" y="609.9999999999998" as="sourcePoint" />
          </mxGeometry>
        </mxCell>
        <mxCell id="Mm-zwQ3smN4NNKGaoo8I-31" value="&lt;span style=&quot;font-size: 24px;&quot;&gt;时间段&lt;/span&gt;" style="whiteSpace=wrap;html=1;rounded=1;shadow=1;strokeWidth=1;fontSize=16;align=center;fillColor=#f5f5f5;strokeColor=#666666;" vertex="1" parent="1">
          <mxGeometry x="912.5" y="650" width="40" height="250" as="geometry" />
        </mxCell>
        <mxCell id="2_DQLB1h0vGzwfbfTh58-1" style="edgeStyle=orthogonalEdgeStyle;rounded=0;orthogonalLoop=1;jettySize=auto;html=1;exitX=0.5;exitY=1;exitDx=0;exitDy=0;entryX=0.5;entryY=0;entryDx=0;entryDy=0;endArrow=none;endFill=0;" edge="1" parent="1" source="vpic5cqD_UgLgBhDc17--9" target="vpic5cqD_UgLgBhDc17--14">
          <mxGeometry relative="1" as="geometry" />
        </mxCell>
        <mxCell id="vpic5cqD_UgLgBhDc17--9" value="&lt;span style=&quot;font-size: 24px;&quot;&gt;按分类查询&lt;/span&gt;" style="whiteSpace=wrap;html=1;rounded=1;shadow=1;strokeWidth=1;fontSize=16;align=center;fillColor=#f5f5f5;strokeColor=#666666;" vertex="1" parent="1">
          <mxGeometry x="1159.5" y="310" width="40" height="250" as="geometry" />
        </mxCell>
        <mxCell id="vpic5cqD_UgLgBhDc17--12" style="edgeStyle=orthogonalEdgeStyle;rounded=0;orthogonalLoop=1;jettySize=auto;html=1;exitX=0.5;exitY=0;exitDx=0;exitDy=0;entryX=0.5;entryY=1;entryDx=0;entryDy=0;endArrow=none;endFill=0;" edge="1" parent="1" source="vpic5cqD_UgLgBhDc17--13" target="vpic5cqD_UgLgBhDc17--9">
          <mxGeometry relative="1" as="geometry" />
        </mxCell>
        <mxCell id="vpic5cqD_UgLgBhDc17--13" value="&lt;span style=&quot;font-size: 24px;&quot;&gt;细分类&lt;/span&gt;" style="whiteSpace=wrap;html=1;rounded=1;shadow=1;strokeWidth=1;fontSize=16;align=center;fillColor=#f5f5f5;strokeColor=#666666;" vertex="1" parent="1">
          <mxGeometry x="1201.5" y="650" width="40" height="250" as="geometry" />
        </mxCell>
        <mxCell id="vpic5cqD_UgLgBhDc17--14" value="&lt;span style=&quot;font-size: 24px;&quot;&gt;大分类&lt;/span&gt;" style="whiteSpace=wrap;html=1;rounded=1;shadow=1;strokeWidth=1;fontSize=16;align=center;fillColor=#f5f5f5;strokeColor=#666666;" vertex="1" parent="1">
          <mxGeometry x="1117.5" y="650" width="40" height="250" as="geometry" />
        </mxCell>
      </root>
    </mxGraphModel>
  </diagram>
  <diagram id="dv0b0R_ZeCmkf2GgQyr5" name="第 3 页">
    <mxGraphModel dx="1892" dy="1346" grid="1" gridSize="10" guides="1" tooltips="1" connect="1" arrows="1" fold="1" page="1" pageScale="1" pageWidth="827" pageHeight="1169" math="0" shadow="0">
      <root>
        <mxCell id="0" />
        <mxCell id="1" parent="0" />
        <mxCell id="ovEz9l_XI_LYUtadzTe1-1" style="edgeStyle=orthogonalEdgeStyle;rounded=0;orthogonalLoop=1;jettySize=auto;html=1;exitX=0.5;exitY=1;exitDx=0;exitDy=0;entryX=0.5;entryY=0;entryDx=0;entryDy=0;endArrow=none;endFill=0;" edge="1" parent="1" source="ovEz9l_XI_LYUtadzTe1-5" target="ovEz9l_XI_LYUtadzTe1-7">
          <mxGeometry relative="1" as="geometry" />
        </mxCell>
        <mxCell id="ovEz9l_XI_LYUtadzTe1-2" style="edgeStyle=orthogonalEdgeStyle;rounded=0;orthogonalLoop=1;jettySize=auto;html=1;exitX=0.5;exitY=1;exitDx=0;exitDy=0;entryX=0.5;entryY=0;entryDx=0;entryDy=0;endArrow=none;endFill=0;" edge="1" parent="1" source="ovEz9l_XI_LYUtadzTe1-5" target="ovEz9l_XI_LYUtadzTe1-6">
          <mxGeometry relative="1" as="geometry" />
        </mxCell>
        <mxCell id="ovEz9l_XI_LYUtadzTe1-3" style="edgeStyle=orthogonalEdgeStyle;rounded=0;orthogonalLoop=1;jettySize=auto;html=1;exitX=0.5;exitY=1;exitDx=0;exitDy=0;entryX=0.5;entryY=0;entryDx=0;entryDy=0;endArrow=none;endFill=0;" edge="1" parent="1" source="ovEz9l_XI_LYUtadzTe1-5" target="ovEz9l_XI_LYUtadzTe1-8">
          <mxGeometry relative="1" as="geometry" />
        </mxCell>
        <mxCell id="ovEz9l_XI_LYUtadzTe1-5" value="&lt;span style=&quot;font-size: 24px;&quot;&gt;图书管理&lt;/span&gt;" style="whiteSpace=wrap;html=1;rounded=1;shadow=1;strokeWidth=1;fontSize=16;align=center;fillColor=#f5f5f5;strokeColor=#666666;" vertex="1" parent="1">
          <mxGeometry x="574.5" y="200" width="510" height="40" as="geometry" />
        </mxCell>
        <mxCell id="ovEz9l_XI_LYUtadzTe1-6" value="&lt;span style=&quot;font-size: 24px;&quot;&gt;删除图书&lt;/span&gt;" style="whiteSpace=wrap;html=1;rounded=1;shadow=1;strokeWidth=1;fontSize=16;align=center;fillColor=#f5f5f5;strokeColor=#666666;" vertex="1" parent="1">
          <mxGeometry x="808.5" y="310" width="40" height="250" as="geometry" />
        </mxCell>
        <mxCell id="ovEz9l_XI_LYUtadzTe1-7" value="&lt;span style=&quot;font-size: 24px;&quot;&gt;增添图书&lt;/span&gt;" style="whiteSpace=wrap;html=1;rounded=1;shadow=1;strokeWidth=1;fontSize=16;align=center;fillColor=#f5f5f5;strokeColor=#666666;" vertex="1" parent="1">
          <mxGeometry x="539.5" y="310" width="40" height="250" as="geometry" />
        </mxCell>
        <mxCell id="LHMyIwf6_hl8pDXlbqEC-6" style="edgeStyle=orthogonalEdgeStyle;rounded=0;orthogonalLoop=1;jettySize=auto;html=1;exitX=0.5;exitY=1;exitDx=0;exitDy=0;entryX=0.5;entryY=0;entryDx=0;entryDy=0;endArrow=none;endFill=0;" edge="1" parent="1" source="ovEz9l_XI_LYUtadzTe1-8" target="LHMyIwf6_hl8pDXlbqEC-4">
          <mxGeometry relative="1" as="geometry" />
        </mxCell>
        <mxCell id="LHMyIwf6_hl8pDXlbqEC-7" style="edgeStyle=orthogonalEdgeStyle;rounded=0;orthogonalLoop=1;jettySize=auto;html=1;exitX=0.5;exitY=1;exitDx=0;exitDy=0;entryX=0.5;entryY=0;entryDx=0;entryDy=0;endArrow=none;endFill=0;" edge="1" parent="1" source="ovEz9l_XI_LYUtadzTe1-8" target="LHMyIwf6_hl8pDXlbqEC-5">
          <mxGeometry relative="1" as="geometry" />
        </mxCell>
        <mxCell id="ovEz9l_XI_LYUtadzTe1-8" value="&lt;span style=&quot;font-size: 24px;&quot;&gt;更改图书&lt;/span&gt;" style="whiteSpace=wrap;html=1;rounded=1;shadow=1;strokeWidth=1;fontSize=16;align=center;fillColor=#f5f5f5;strokeColor=#666666;" vertex="1" parent="1">
          <mxGeometry x="1077.5" y="310" width="40" height="250" as="geometry" />
        </mxCell>
        <mxCell id="ovEz9l_XI_LYUtadzTe1-9" style="edgeStyle=orthogonalEdgeStyle;rounded=0;orthogonalLoop=1;jettySize=auto;html=1;exitX=0.5;exitY=1;exitDx=0;exitDy=0;entryX=0.5;entryY=0;entryDx=0;entryDy=0;endArrow=none;endFill=0;" edge="1" parent="1" target="ovEz9l_XI_LYUtadzTe1-13">
          <mxGeometry relative="1" as="geometry">
            <mxPoint x="559.5" y="609.9999999999998" as="sourcePoint" />
          </mxGeometry>
        </mxCell>
        <mxCell id="ovEz9l_XI_LYUtadzTe1-10" style="edgeStyle=orthogonalEdgeStyle;rounded=0;orthogonalLoop=1;jettySize=auto;html=1;entryX=0.5;entryY=0;entryDx=0;entryDy=0;endArrow=none;endFill=0;exitX=0.5;exitY=1;exitDx=0;exitDy=0;" edge="1" parent="1" source="ovEz9l_XI_LYUtadzTe1-7" target="ovEz9l_XI_LYUtadzTe1-12">
          <mxGeometry relative="1" as="geometry">
            <mxPoint x="559.5" y="700" as="sourcePoint" />
          </mxGeometry>
        </mxCell>
        <mxCell id="ovEz9l_XI_LYUtadzTe1-11" style="edgeStyle=orthogonalEdgeStyle;rounded=0;orthogonalLoop=1;jettySize=auto;html=1;exitX=0.5;exitY=1;exitDx=0;exitDy=0;entryX=0.5;entryY=0;entryDx=0;entryDy=0;endArrow=none;endFill=0;" edge="1" parent="1" target="ovEz9l_XI_LYUtadzTe1-14">
          <mxGeometry relative="1" as="geometry">
            <mxPoint x="559.5" y="609.9999999999998" as="sourcePoint" />
          </mxGeometry>
        </mxCell>
        <mxCell id="ovEz9l_XI_LYUtadzTe1-12" value="&lt;span style=&quot;font-size: 24px;&quot;&gt;费用&lt;/span&gt;" style="whiteSpace=wrap;html=1;rounded=1;shadow=1;strokeWidth=1;fontSize=16;align=center;fillColor=#f5f5f5;strokeColor=#666666;" vertex="1" parent="1">
          <mxGeometry x="540.5" y="650" width="40" height="250" as="geometry" />
        </mxCell>
        <mxCell id="ovEz9l_XI_LYUtadzTe1-13" value="&lt;span style=&quot;font-size: 24px;&quot;&gt;图书基本信息&lt;/span&gt;" style="whiteSpace=wrap;html=1;rounded=1;shadow=1;strokeWidth=1;fontSize=16;align=center;fillColor=#f5f5f5;strokeColor=#666666;" vertex="1" parent="1">
          <mxGeometry x="456.5" y="650" width="40" height="250" as="geometry" />
        </mxCell>
        <mxCell id="ovEz9l_XI_LYUtadzTe1-14" value="&lt;span style=&quot;font-size: 24px;&quot;&gt;增添日期&lt;/span&gt;" style="whiteSpace=wrap;html=1;rounded=1;shadow=1;strokeWidth=1;fontSize=16;align=center;fillColor=#f5f5f5;strokeColor=#666666;" vertex="1" parent="1">
          <mxGeometry x="622.5" y="650" width="40" height="250" as="geometry" />
        </mxCell>
        <mxCell id="ovEz9l_XI_LYUtadzTe1-17" style="edgeStyle=orthogonalEdgeStyle;rounded=0;orthogonalLoop=1;jettySize=auto;html=1;exitX=0.5;exitY=0;exitDx=0;exitDy=0;entryX=0.5;entryY=1;entryDx=0;entryDy=0;endArrow=none;endFill=0;" edge="1" parent="1" source="ovEz9l_XI_LYUtadzTe1-18" target="ovEz9l_XI_LYUtadzTe1-6">
          <mxGeometry relative="1" as="geometry" />
        </mxCell>
        <mxCell id="ovEz9l_XI_LYUtadzTe1-18" value="&lt;font style=&quot;font-size: 24px;&quot;&gt;日期&lt;/font&gt;" style="whiteSpace=wrap;html=1;rounded=1;shadow=1;strokeWidth=1;fontSize=16;align=center;fillColor=#f5f5f5;strokeColor=#666666;" vertex="1" parent="1">
          <mxGeometry x="809.5" y="650" width="40" height="250" as="geometry" />
        </mxCell>
        <mxCell id="LHMyIwf6_hl8pDXlbqEC-4" value="&lt;span style=&quot;font-size: 24px;&quot;&gt;图书基本信息&lt;/span&gt;" style="whiteSpace=wrap;html=1;rounded=1;shadow=1;strokeWidth=1;fontSize=16;align=center;fillColor=#f5f5f5;strokeColor=#666666;" vertex="1" parent="1">
          <mxGeometry x="994.5" y="650" width="40" height="250" as="geometry" />
        </mxCell>
        <mxCell id="LHMyIwf6_hl8pDXlbqEC-5" value="&lt;span style=&quot;font-size: 24px;&quot;&gt;更改日期&lt;/span&gt;" style="whiteSpace=wrap;html=1;rounded=1;shadow=1;strokeWidth=1;fontSize=16;align=center;fillColor=#f5f5f5;strokeColor=#666666;" vertex="1" parent="1">
          <mxGeometry x="1160.5" y="650" width="40" height="250" as="geometry" />
        </mxCell>
      </root>
    </mxGraphModel>
  </diagram>
</mxfile>
